<svg xmlns="http://www.w3.org/2000/svg" width="24" height="24" viewBox="0 0 24 24" fill="none">
<path fill-rule="evenodd" clip-rule="evenodd" d="M12.1818 3C10.2771 3 8.45036 3.75665 7.10351 5.10351C5.75665 6.45036 5 8.27708 5 10.1818C5 12.9617 6.81119 15.6724 8.81686 17.7895C9.79925 18.8265 10.785 19.6757 11.5263 20.266C11.777 20.4656 11.9987 20.6348 12.1818 20.771C12.3649 20.6348 12.5867 20.4656 12.8373 20.266C13.5786 19.6757 14.5644 18.8265 15.5468 17.7895C17.5524 15.6724 19.3636 12.9617 19.3636 10.1818C19.3636 8.27708 18.607 6.45036 17.2601 5.10351C15.9133 3.75665 14.0866 3 12.1818 3ZM12.1818 22C11.6271 22.8321 11.6266 22.8317 11.6266 22.8317L11.6239 22.8299L11.6176 22.8257L11.5965 22.8114C11.5786 22.7992 11.5531 22.7818 11.5206 22.7593C11.4555 22.7142 11.3623 22.6487 11.2448 22.5639C11.0099 22.3942 10.6777 22.1469 10.2805 21.8306C9.4877 21.1993 8.42802 20.2871 7.36496 19.165C5.27972 16.9639 3 13.7656 3 10.1818C3 7.74665 3.96737 5.41122 5.68929 3.68929C7.41122 1.96737 9.74665 1 12.1818 1C14.617 1 16.9524 1.96737 18.6743 3.68929C20.3963 5.41122 21.3636 7.74665 21.3636 10.1818C21.3636 13.7656 19.0839 16.9639 16.9987 19.165C15.9356 20.2871 14.8759 21.1993 14.0832 21.8306C13.686 22.1469 13.3537 22.3942 13.1189 22.5639C13.0014 22.6487 12.9081 22.7142 12.8431 22.7593C12.8105 22.7818 12.7851 22.7992 12.7672 22.8114L12.746 22.8257L12.7398 22.8299L12.7378 22.8312C12.7378 22.8312 12.7365 22.8321 12.1818 22ZM12.1818 22L12.7365 22.8321C12.4006 23.056 11.9625 23.0556 11.6266 22.8317L12.1818 22Z" fill="#01FFA9"/>
<path fill-rule="evenodd" clip-rule="evenodd" d="M12.1818 8.45455C11.2279 8.45455 10.4545 9.22787 10.4545 10.1818C10.4545 11.1358 11.2279 11.9091 12.1818 11.9091C13.1358 11.9091 13.9091 11.1358 13.9091 10.1818C13.9091 9.22787 13.1358 8.45455 12.1818 8.45455ZM8.45455 10.1818C8.45455 8.1233 10.1233 6.45455 12.1818 6.45455C14.2403 6.45455 15.9091 8.1233 15.9091 10.1818C15.9091 12.2403 14.2403 13.9091 12.1818 13.9091C10.1233 13.9091 8.45455 12.2403 8.45455 10.1818Z" fill="#01FFA9"/>
</svg>