<svg xmlns="http://www.w3.org/2000/svg" width="31" height="31" viewBox="0 0 31 31" fill="none">
<path fill-rule="evenodd" clip-rule="evenodd" d="M28.0762 2.73021C28.8433 3.49705 29.4419 4.41561 29.8336 5.42709C30.2852 6.62711 30.5262 7.89612 30.5459 9.17816C30.6406 10.7974 30.6406 11.3219 30.6406 15.4553C30.6406 19.5888 30.6186 20.1048 30.5459 21.7325C30.5205 22.9981 30.2819 24.2467 29.8369 25.4311C29.4447 26.4425 28.846 27.361 28.079 28.128C27.3119 28.8951 26.3934 29.4938 25.382 29.886C24.198 30.3295 22.9475 30.5692 21.6834 30.5949C20.0676 30.688 19.538 30.688 15.4063 30.688C11.2745 30.688 10.7584 30.666 9.12909 30.5949C7.86245 30.5533 6.6122 30.2958 5.43217 29.8336C4.42049 29.442 3.5016 28.8437 2.73424 28.0769C1.96687 27.3101 1.36788 26.3917 0.975554 25.3803C0.53057 24.1943 0.292004 22.9456 0.266625 21.68C0.171875 20.0608 0.171875 19.5346 0.171875 15.4029C0.171875 11.2694 0.19387 10.7534 0.266625 9.12571C0.291352 7.86154 0.531085 6.61081 0.975554 5.42709C1.36678 4.41534 1.96519 3.49655 2.73237 2.72965C3.49956 1.96276 4.41858 1.36471 5.43048 0.973862C6.61274 0.528204 7.86248 0.28787 9.12571 0.26324C10.7415 0.171875 11.2711 0.171875 15.4029 0.171875C19.5346 0.171875 20.0507 0.192178 21.68 0.26324C22.9442 0.289197 24.1948 0.529482 25.3786 0.973862C26.3903 1.36516 27.3091 1.96338 28.0762 2.73021ZM27.2466 24.4108C27.5839 23.4959 27.7619 22.5299 27.7728 21.5548V21.5565H27.7914C27.8641 19.939 27.8641 19.4957 27.8641 15.3744V15.3741C27.8641 11.2508 27.8455 10.7991 27.7728 9.19C27.757 8.22586 27.5791 7.27124 27.2466 6.36613C26.9923 5.70808 26.6033 5.11046 26.1044 4.61162C25.6056 4.11278 25.008 3.72375 24.3499 3.4695C23.4453 3.13292 22.4895 2.95491 21.5244 2.9433C19.8882 2.85024 19.4653 2.85024 15.342 2.85024C11.2187 2.85024 10.7669 2.87055 9.15786 2.9433C8.19348 2.95677 7.23848 3.13473 6.33398 3.4695C4.99903 3.98047 3.94155 5.03117 3.42551 6.36613C3.08822 7.28049 2.91025 8.24593 2.89931 9.22046C2.80963 10.86 2.80963 11.2813 2.80963 15.4046C2.80963 19.5262 2.82655 19.9796 2.89931 21.587C2.91506 22.5511 3.09295 23.5057 3.42551 24.4108C3.68071 25.0701 4.07146 25.6684 4.57247 26.167C5.07348 26.6657 5.67359 27.0537 6.33398 27.3058C7.23804 27.6422 8.19332 27.8202 9.15786 27.832C10.7957 27.925 11.217 27.925 15.342 27.925C19.4636 27.925 19.917 27.9064 21.5244 27.832C22.4894 27.8195 23.4451 27.6415 24.3499 27.3058C25.008 27.0521 25.6057 26.6634 26.1046 26.1649C26.6035 25.6663 26.9925 25.0688 27.2466 24.4108ZM23.527 9.10541C24.5343 9.10541 25.3509 8.28881 25.3509 7.28148C25.3509 6.27415 24.5343 5.45755 23.527 5.45755C22.5197 5.45755 21.7031 6.27415 21.7031 7.28148C21.7031 8.28881 22.5197 9.10541 23.527 9.10541ZM15.3932 7.56911C13.3183 7.56911 11.3283 8.39338 9.8611 9.86059C8.39389 11.3278 7.56962 13.3178 7.56962 15.3927C7.56962 17.4677 8.39389 19.4576 9.8611 20.9248C11.3283 22.3921 13.3183 23.2163 15.3932 23.2163C17.4682 23.2163 19.4581 22.3921 20.9254 20.9248C22.3926 19.4576 23.2168 17.4677 23.2168 15.3927C23.2168 13.3178 22.3926 11.3278 20.9254 9.86059C19.4581 8.39338 17.4682 7.56911 15.3932 7.56911ZM15.3932 20.4737C14.0452 20.4737 12.7524 19.9382 11.7993 18.985C10.8461 18.0318 10.3106 16.739 10.3106 15.391C10.3106 14.043 10.8461 12.7502 11.7993 11.7971C12.7524 10.8439 14.0452 10.3084 15.3932 10.3084C16.7412 10.3084 18.034 10.8439 18.9872 11.7971C19.9404 12.7502 20.4759 14.043 20.4759 15.391C20.4759 16.739 19.9404 18.0318 18.9872 18.985C18.034 19.9382 16.7412 20.4737 15.3932 20.4737Z" fill="black"/>
</svg>