<svg xmlns="http://www.w3.org/2000/svg" width="29" height="29" viewBox="0 0 29 29" fill="none">
<path d="M6.78908 3.7422C6.78908 5.36009 5.70744 6.75252 3.74067 6.75252C1.88969 6.75252 0.695312 5.43931 0.695312 3.82142C0.695312 2.16086 1.85313 0.695312 3.7422 0.695312C5.63126 0.695312 6.75252 2.08164 6.78908 3.7422ZM0.695312 28.1173V8.31252H6.78908V28.1173H0.695312Z" fill="black"/>
<path d="M9.83606 15.0827C9.83606 12.729 9.75836 10.7622 9.68066 9.06359H15.1559L15.4271 11.6885H15.5429C16.3137 10.453 18.2028 8.6416 21.3655 8.6416C25.2228 8.6416 28.1174 11.2238 28.1174 16.7798V28.1173H22.0236V17.6649C22.0236 15.2366 21.0989 13.3841 18.9767 13.3841C17.3588 13.3841 16.5483 14.6942 16.1233 15.7744C15.9679 16.1613 15.9298 16.7006 15.9298 17.2414V28.1173H9.83606V15.0827Z" fill="black"/>
</svg>