<svg version="1.1" id="Camada_1" xmlns:x="&amp;ns_extend;" xmlns:i="&amp;ns_ai;" xmlns:graph="&amp;ns_graphs;" xmlns="http://www.w3.org/2000/svg" xmlns:xlink="http://www.w3.org/1999/xlink" x="0px" y="0px" viewBox="0 0 664.42 272.21" style="enable-background:new 0 0 664.42 272.21;" xml:space="preserve">
<switch>
<g i:extraneous="self">
<polygon points="575.49,47.3 575.49,65.86 610.62,65.86 610.62,100.98 629.18,100.98 629.18,47.3 		" fill="#01ffa9"></polygon>
<polygon points="549.01,73.78 549.01,92.34 584.14,92.34 584.14,127.47 602.7,127.47 602.7,73.78 		" fill="#01ffa9"></polygon>
<path d="M491.17,87.59c-7.61-1.69-14.24,4.94-12.55,12.55c0.85,3.83,3.94,6.93,7.78,7.78c7.61,1.69,14.24-4.94,12.55-12.55
C498.1,91.54,495,88.44,491.17,87.59z"></path>
<rect x="479.5" y="114.24" width="18.56" height="63.99"></rect>
<path d="M297.84,114.12h-18.52l0.01,4.45c0,0-4.01-2.36-6.41-3.34c-3.28-1.34-6.99-2.01-11.11-2.01c-5.12,0-9.75,0.87-13.87,2.61
s-7.63,4.11-10.51,7.12c-2.88,3-5.1,6.52-6.67,10.54c-1.56,4.02-2.34,8.32-2.34,12.88s0.78,8.86,2.34,12.88
c1.56,4.02,3.79,7.53,6.7,10.51c2.9,2.98,6.42,5.34,10.54,7.09c4.12,1.74,8.73,2.61,13.81,2.61c4.08,0,7.76-0.66,11.02-1.98
c2.41-0.98,6.46-3.35,6.46-3.35l0.02,4.21h18.54V114.12z M278.4,153.42c-0.86,2.14-2.04,3.96-3.54,5.46
c-1.5,1.5-3.26,2.66-5.28,3.48c-2.02,0.82-4.17,1.23-6.46,1.23c-2.28,0-4.43-0.41-6.46-1.23c-2.02-0.82-3.78-1.99-5.28-3.51
c-1.5-1.52-2.69-3.34-3.57-5.46c-0.88-2.12-1.32-4.48-1.32-7.09c0-2.56,0.43-4.89,1.29-7c0.86-2.1,2.03-3.9,3.51-5.4
c1.48-1.5,3.23-2.66,5.25-3.48c2.02-0.82,4.19-1.23,6.52-1.23c2.28,0,4.43,0.41,6.46,1.23c2.02,0.82,3.78,1.98,5.28,3.48
c1.5,1.5,2.69,3.3,3.57,5.4c0.88,2.1,1.32,4.43,1.32,7C279.69,148.91,279.26,151.28,278.4,153.42z"></path>
<path d="M341.27,114.09c-3.88,0-7.26,0.56-10.12,1.68c-1.89,0.74-5.08,2.47-5.08,2.47v-4.02h-18.55v64.11h18.5v-30.91
c0-5.73,1.43-10.01,4.29-12.85c2.86-2.84,6.86-4.26,11.98-4.26l7.81-0.06v-16.15H341.27z"></path>
<path d="M385.35,163c-1.24,0-2.4-0.14-3.48-0.42c-1.08-0.28-2.01-0.79-2.79-1.53c-0.78-0.74-1.4-1.74-1.86-3
c-0.46-1.26-0.69-2.85-0.69-4.77v-23.11h19.14v-15.91h-19.14l-0.04-25.81c0,0,0,0,0,0l-18.57-0.02c0,0,0,0,0,0l0.04,27.08
l0.08,15.91v22.04c0,5.24,0.67,9.48,2.01,12.7c1.34,3.22,3.17,5.73,5.49,7.51c2.32,1.78,5.03,2.98,8.14,3.6
c3.1,0.62,6.4,0.93,9.88,0.93h12.07l0.12-15.19H385.35z"></path>
<path d="M463.1,121.14c-2.28-2.64-5.2-4.66-8.77-6.07c-3.56-1.4-7.83-2.1-12.79-2.1c-3.44,0-6.69,0.58-9.73,1.74
c-3.04,1.16-5.75,2.58-8.11,4.26l0.12-30.56h-18.43c0,0,0,0,0,0v89.77c0,0,0,0,0,0h18.56v-33.74c0-2.28,0.34-4.36,1.02-6.25
c0.68-1.88,1.63-3.51,2.85-4.89c1.22-1.38,2.69-2.45,4.41-3.21c1.72-0.76,3.6-1.14,5.65-1.14c2.04,0,3.87,0.23,5.49,0.69
s3,1.26,4.14,2.4c1.14,1.14,2.02,2.68,2.64,4.62c0.62,1.94,1.01,4.41,1.01,7.42v34.14c0,0,0,0,0,0h18.59v-34.51
c0-4.8-0.54-9.11-1.62-12.91C467.07,127.01,465.39,123.78,463.1,121.14z"></path>
<path d="M561.07,149.16c-1.32-2.22-3.11-4.02-5.37-5.4c-2.26-1.38-4.87-2.46-7.84-3.24c-2.96-0.78-6.09-1.45-9.37-2.01
c-2.12-0.28-3.94-0.56-5.46-0.84c-1.52-0.28-2.77-0.61-3.75-0.99c-0.98-0.38-1.7-0.84-2.16-1.38c-0.46-0.54-0.69-1.21-0.69-2.01
c-0.04-1.36,0.62-2.56,1.98-3.6c1.36-1.04,3.46-1.56,6.31-1.56c2.4,0,4.26,0.55,5.59,1.65c1.32,1.1,2.04,2.41,2.16,3.93
l18.57,0.06c0.02,0,0.05-0.02,0.05-0.05c-0.01-3.02-0.58-5.8-1.71-8.33c-1.14-2.54-2.79-4.73-4.95-6.58
c-2.16-1.84-4.79-3.26-7.9-4.26s-6.6-1.5-10.48-1.5c-4.76,0-8.91,0.47-12.43,1.41c-3.52,0.94-6.45,2.28-8.77,4.02
c-2.32,1.74-4.05,3.88-5.19,6.43c-1.14,2.54-1.71,5.39-1.71,8.56c0,2.4,0.3,4.49,0.9,6.28c0.6,1.78,1.41,3.31,2.43,4.59
c1.02,1.28,2.19,2.35,3.51,3.21c1.32,0.86,2.69,1.58,4.11,2.16s2.85,1.04,4.29,1.38c1.44,0.34,2.76,0.63,3.96,0.87
c2.68,0.6,5.04,1.1,7.09,1.5c2.04,0.4,3.76,0.84,5.16,1.32c1.4,0.48,2.46,1.03,3.18,1.65c0.72,0.62,1.08,1.43,1.08,2.43
c0,1.68-0.78,2.98-2.34,3.9c-1.56,0.92-4.1,1.38-7.63,1.38c-2.72,0-4.97-0.58-6.76-1.74c-1.78-1.16-2.75-2.68-2.91-4.56
l-18.26-0.06c0,2.56,0.52,5.13,1.56,7.72c1.04,2.58,2.66,4.9,4.86,6.97c2.2,2.06,5.01,3.73,8.44,5.01
c3.42,1.28,7.54,1.92,12.34,1.92c4.4,0,8.45-0.43,12.13-1.29c3.68-0.86,6.86-2.19,9.52-3.99c2.66-1.8,4.73-4.07,6.22-6.82
c1.48-2.74,2.22-5.98,2.22-9.7C563.05,154.19,562.39,151.38,561.07,149.16z"></path>
<path d="M102.93,143.75c-2.26-1.38-4.87-2.46-7.84-3.24c-2.96-0.78-6.09-1.45-9.37-2.01c-2.12-0.28-3.94-0.56-5.46-0.84
c-1.52-0.28-2.77-0.61-3.75-0.99c-0.98-0.38-1.7-0.84-2.16-1.38c-0.46-0.54-0.69-1.21-0.69-2.01c-0.04-1.36,0.62-2.56,1.98-3.6
c1.36-1.04,3.46-1.56,6.31-1.56c2.4,0,4.26,0.55,5.58,1.65c1.32,1.1,2.04,2.41,2.16,3.93l18.62,0.06c0-3.04-0.57-5.84-1.71-8.38
c-1.14-2.54-2.79-4.73-4.95-6.58c-2.16-1.84-4.79-3.26-7.9-4.26c-3.1-1-6.6-1.5-10.48-1.5c-4.76,0-8.91,0.47-12.43,1.41
c-3.52,0.94-6.45,2.28-8.77,4.02c-2.32,1.74-4.05,3.88-5.19,6.43c-1.14,2.54-1.71,5.39-1.71,8.56c0,2.4,0.3,4.49,0.9,6.28
c0.6,1.78,1.41,3.31,2.43,4.59c1.02,1.28,2.19,2.35,3.51,3.21c1.32,0.86,2.69,1.58,4.11,2.16c1.42,0.58,2.85,1.04,4.29,1.38
c1.44,0.34,2.76,0.63,3.96,0.87c2.68,0.6,5.04,1.1,7.09,1.5c2.04,0.4,3.76,0.84,5.16,1.32c1.4,0.48,2.46,1.03,3.18,1.65
c0.72,0.62,1.08,1.43,1.08,2.43c0,1.68-0.78,2.98-2.34,3.9c-1.56,0.92-4.1,1.38-7.63,1.38c-2.72,0-4.97-0.58-6.76-1.74
c-1.78-1.16-2.75-2.68-2.91-4.56L53,157.78c0,2.56,0.52,5.13,1.56,7.72c1.04,2.58,2.66,4.9,4.86,6.97
c2.2,2.06,5.01,3.73,8.44,5.01c3.42,1.28,7.54,1.92,12.34,1.92c4.4,0,8.45-0.43,12.13-1.29c3.68-0.86,6.86-2.19,9.52-3.99
c2.66-1.8,4.73-4.07,6.22-6.82c1.48-2.74,2.22-5.98,2.22-9.7c0-3.4-0.66-6.22-1.98-8.44
C106.99,146.94,105.19,145.13,102.93,143.75z"></path>
<path d="M219.63,130.76c-1.14-3.78-2.84-7-5.1-9.64c-2.26-2.64-5.05-4.66-8.38-6.07c-3.32-1.4-7.15-2.1-11.47-2.1
c-2.48,0-4.81,0.22-7,0.66c-2.18,0.44-4.2,1.03-6.07,1.77c-1.86,0.74-3.57,1.61-5.13,2.61c-1.56,1-2.96,2.04-4.2,3.12
c-2.28-2.6-5.04-4.61-8.29-6.04c-3.24-1.42-6.93-2.13-11.05-2.13c-3.88,0-7.42,0.62-10.6,1.86c-2.14,0.83-5.61,2.66-5.61,2.66
v-3.34l-18.56,0.01v62.51c0,0.37-0.01,1.48-0.01,1.48h18.55V141.6c-0.01-0.22-0.03-0.43-0.03-0.65c0-6.56,5.32-11.87,11.87-11.87
c6.42,0,11.64,5.11,11.85,11.48h0.02v37.7c0,0.02,0.01,0.03,0.03,0.03h18.5c0.02,0,0.03-0.01,0.03-0.03V141.6
c-0.02-0.34,0-0.71-0.02-1.04c-0.24-4.26,2.09-8.3,5.94-10.14c8.75-4.16,17.3,1.94,17.57,10.14h0.02v37.64
c0,0.02,0.01,0.03,0.03,0.03h18.51c0.02,0,0.03-0.01,0.03-0.03v-34.62C221.06,138.82,220.77,134.54,219.63,130.76z"></path>
</g>
</switch>
</svg>